<svg width="21" height="21" viewBox="0 0 21 21" fill="none" xmlns="http://www.w3.org/2000/svg">
<path d="M14.5531 16.17C15.8034 16.17 16.8169 15.1564 16.8169 13.9061C16.8169 12.6559 15.8034 11.6423 14.5531 11.6423C13.3028 11.6423 12.2893 12.6559 12.2893 13.9061C12.2893 15.1564 13.3028 16.17 14.5531 16.17Z" stroke="white" stroke-width="2" stroke-linecap="round" stroke-linejoin="round"/>
<path d="M4.20424 18.7574C5.4545 18.7574 6.46805 17.7438 6.46805 16.4935C6.46805 15.2433 5.4545 14.2297 4.20424 14.2297C2.95397 14.2297 1.94043 15.2433 1.94043 16.4935C1.94043 17.7438 2.95397 18.7574 4.20424 18.7574Z" stroke="white" stroke-width="2" stroke-linecap="round" stroke-linejoin="round"/>
<path d="M16.8169 6.46802L6.46802 9.05523" stroke="white" stroke-width="2" stroke-linecap="round" stroke-linejoin="round"/>
<path d="M6.46802 16.4934V5.17437L16.8169 2.58716V13.9062" stroke="white" stroke-width="2" stroke-linecap="round" stroke-linejoin="round"/>
</svg>
