<svg width="26" height="26" viewBox="0 0 26 26" fill="none" xmlns="http://www.w3.org/2000/svg">
<path d="M13 22.75C18.3848 22.75 22.75 18.3848 22.75 13C22.75 7.61522 18.3848 3.25 13 3.25C7.61522 3.25 3.25 7.61522 3.25 13C3.25 18.3848 7.61522 22.75 13 22.75Z" stroke="white" stroke-width="2" stroke-linecap="round" stroke-linejoin="round"/>
<path d="M18.1899 10.9992C16.5815 10.1764 14.8004 9.74824 12.9937 9.75001C11.1871 9.75177 9.40684 10.1835 7.80005 11.0094" stroke="white" stroke-width="2" stroke-linecap="round" stroke-linejoin="round"/>
<path d="M16.6868 13.8836C15.543 13.3012 14.2773 12.9985 12.9938 13.0003C11.7103 13.002 10.4454 13.3082 9.30322 13.8937" stroke="white" stroke-width="2" stroke-linecap="round" stroke-linejoin="round"/>
<path d="M15.1835 16.768C14.5067 16.4254 13.7585 16.2479 12.9999 16.25C12.2385 16.2515 11.4878 16.4288 10.8062 16.768" stroke="white" stroke-width="2" stroke-linecap="round" stroke-linejoin="round"/>
</svg>
